<svg xmlns="http://www.w3.org/2000/svg" width="800" height="1200" viewBox="0 0 800 1200">
  <rect width="800" height="1200" fill="#f6efe6"/>
  <rect x="40" y="40" width="720" height="1120" rx="28" fill="#fff8ef" stroke="#e5d6c7"/>

  <text x="80" y="110" font-family="Arial, sans-serif" font-size="28" fill="#3b2f25" font-weight="700">Stats</text>
  <text x="80" y="145" font-family="Arial, sans-serif" font-size="16" fill="#7a6c60">Histogram with bottom tab bar</text>

  <rect x="80" y="190" width="640" height="220" rx="16" fill="#fce8d2" stroke="#f2caa2"/>
  <text x="100" y="225" font-family="Arial, sans-serif" font-size="14" fill="#3b2f25" font-weight="700">Grade distribution</text>
  <rect x="110" y="260" width="30" height="90" rx="8" fill="#f59e0b"/>
  <rect x="150" y="230" width="30" height="120" rx="8" fill="#f59e0b"/>
  <rect x="190" y="280" width="30" height="70" rx="8" fill="#f59e0b"/>
  <rect x="230" y="210" width="30" height="140" rx="8" fill="#f59e0b"/>

  <rect x="40" y="1040" width="720" height="100" rx="28" fill="#fff" stroke="#e5d6c7"/>
  <line x1="40" y1="1040" x2="760" y2="1040" stroke="#e5d6c7"/>

  <g font-family="Arial, sans-serif" font-size="11" fill="#7a6c60" text-anchor="middle">
    <circle cx="160" cy="1082" r="16" fill="#e5d6c7"/>
    <rect x="152" y="1074" width="16" height="16" rx="4" fill="#fff8ef"/>
    <text x="160" y="1110">Attempts</text>
  </g>
  <g font-family="Arial, sans-serif" font-size="11" fill="#b45309" text-anchor="middle">
    <circle cx="300" cy="1082" r="16" fill="#f59e0b"/>
    <rect x="292" y="1074" width="16" height="16" rx="4" fill="#fff8ef"/>
    <text x="300" y="1110">Stats</text>
  </g>
  <g font-family="Arial, sans-serif" font-size="11" fill="#7a6c60" text-anchor="middle">
    <circle cx="440" cy="1082" r="16" fill="#e5d6c7"/>
    <rect x="432" y="1074" width="16" height="16" rx="4" fill="#fff8ef"/>
    <text x="440" y="1110">Search</text>
  </g>
  <g font-family="Arial, sans-serif" font-size="11" fill="#7a6c60" text-anchor="middle">
    <circle cx="580" cy="1082" r="16" fill="#e5d6c7"/>
    <rect x="572" y="1074" width="16" height="16" rx="4" fill="#fff8ef"/>
    <text x="580" y="1110">Routes</text>
  </g>
  <g font-family="Arial, sans-serif" font-size="11" fill="#7a6c60" text-anchor="middle">
    <circle cx="720" cy="1082" r="16" fill="#e5d6c7"/>
    <rect x="712" y="1074" width="16" height="16" rx="4" fill="#fff8ef"/>
    <text x="720" y="1110">Settings</text>
  </g>
</svg>
